<mxfile host="65bd71144e">
    <diagram id="lu2nzUotz7hIGqAfpz6T" name="Page-1">
        <mxGraphModel dx="1049" dy="749" grid="1" gridSize="10" guides="1" tooltips="1" connect="1" arrows="1" fold="1" page="1" pageScale="1" pageWidth="1400" pageHeight="850" math="0" shadow="0">
            <root>
                <mxCell id="0"/>
                <mxCell id="1" parent="0"/>
                <mxCell id="2" value="Hotel" style="swimlane;fontStyle=0;align=center;verticalAlign=top;childLayout=stackLayout;horizontal=1;startSize=55;horizontalStack=0;resizeParent=1;resizeParentMax=0;resizeLast=0;collapsible=0;marginBottom=0;html=1;" vertex="1" parent="1">
                    <mxGeometry x="505" y="30" width="390" height="280" as="geometry"/>
                </mxCell>
                <mxCell id="4" value="- name : String&lt;br&gt;-reservation : Reservation[ ]&lt;br&gt;- rooms : Room[ ]" style="text;html=1;strokeColor=none;fillColor=none;align=left;verticalAlign=middle;spacingLeft=4;spacingRight=4;overflow=hidden;rotatable=0;points=[[0,0.5],[1,0.5]];portConstraint=eastwest;" vertex="1" parent="2">
                    <mxGeometry y="55" width="390" height="95" as="geometry"/>
                </mxCell>
                <mxCell id="7" value="" style="line;strokeWidth=1;fillColor=none;align=left;verticalAlign=middle;spacingTop=-1;spacingLeft=3;spacingRight=3;rotatable=0;labelPosition=right;points=[];portConstraint=eastwest;" vertex="1" parent="2">
                    <mxGeometry y="150" width="390" height="8" as="geometry"/>
                </mxCell>
                <mxCell id="9" value="+ Hotel(name : String, room : Rooms)&lt;br&gt;+ Hotel(name : String)&lt;br&gt;+ addRoom(roomNumber : int) : boolean&lt;br&gt;+ addName(name : String) : boolean&lt;br&gt;+ remRoom(roomNumber : int) : boolean&lt;br&gt;+ setPrice(newPrice : double) : boolean&lt;br&gt;+ remReservation(reservation : Reservations) : boolean" style="text;html=1;strokeColor=none;fillColor=none;align=left;verticalAlign=middle;spacingLeft=4;spacingRight=4;overflow=hidden;rotatable=0;points=[[0,0.5],[1,0.5]];portConstraint=eastwest;" vertex="1" parent="2">
                    <mxGeometry y="158" width="390" height="122" as="geometry"/>
                </mxCell>
                <mxCell id="14" style="edgeStyle=none;html=1;" edge="1" parent="1" source="10" target="2">
                    <mxGeometry relative="1" as="geometry"/>
                </mxCell>
                <mxCell id="10" value="Reservation" style="swimlane;fontStyle=0;align=center;verticalAlign=top;childLayout=stackLayout;horizontal=1;startSize=55;horizontalStack=0;resizeParent=1;resizeParentMax=0;resizeLast=0;collapsible=0;marginBottom=0;html=1;" vertex="1" parent="1">
                    <mxGeometry y="30" width="390" height="280" as="geometry"/>
                </mxCell>
                <mxCell id="11" value="- guestName :&amp;nbsp; String&lt;br&gt;- checkIn : int&lt;br&gt;- checkOut : int&lt;br&gt;- totalPrice : double&lt;br&gt;- rooms : Room" style="text;html=1;strokeColor=none;fillColor=none;align=left;verticalAlign=middle;spacingLeft=4;spacingRight=4;overflow=hidden;rotatable=0;points=[[0,0.5],[1,0.5]];portConstraint=eastwest;" vertex="1" parent="10">
                    <mxGeometry y="55" width="390" height="95" as="geometry"/>
                </mxCell>
                <mxCell id="12" value="" style="line;strokeWidth=1;fillColor=none;align=left;verticalAlign=middle;spacingTop=-1;spacingLeft=3;spacingRight=3;rotatable=0;labelPosition=right;points=[];portConstraint=eastwest;" vertex="1" parent="10">
                    <mxGeometry y="150" width="390" height="8" as="geometry"/>
                </mxCell>
                <mxCell id="13" value="+ Reservation(guestName : String, checkIn : int, checkOut : int)&lt;br&gt;+ getTotal(checkIn : int, checkOut : int, price : double) : double" style="text;html=1;strokeColor=none;fillColor=none;align=left;verticalAlign=middle;spacingLeft=4;spacingRight=4;overflow=hidden;rotatable=0;points=[[0,0.5],[1,0.5]];portConstraint=eastwest;" vertex="1" parent="10">
                    <mxGeometry y="158" width="390" height="122" as="geometry"/>
                </mxCell>
            </root>
        </mxGraphModel>
    </diagram>
</mxfile>